<mxfile host="app.diagrams.net" modified="2020-03-21T12:13:39.024Z" agent="Mozilla/5.0 (Windows NT 6.1) AppleWebKit/537.36 (KHTML, like Gecko) Chrome/80.0.3987.149 Safari/537.36" etag="KfTcCum7ZBDGxbI36iS_" version="12.8.8" type="github">
  <diagram name="Page-1" id="03018318-947c-dd8e-b7a3-06fadd420f32">
    <mxGraphModel dx="1108" dy="482" grid="1" gridSize="10" guides="1" tooltips="1" connect="1" arrows="1" fold="1" page="1" pageScale="1" pageWidth="1100" pageHeight="850" background="#ffffff" math="0" shadow="0">
      <root>
        <mxCell id="0" />
        <mxCell id="1" parent="0" />
        <mxCell id="677b7b8949515195-1" value="" style="whiteSpace=wrap;html=1;rounded=0;shadow=0;labelBackgroundColor=none;strokeColor=#000000;strokeWidth=1;fillColor=none;fontFamily=Verdana;fontSize=12;fontColor=#000000;align=center;comic=1;" parent="1" vertex="1">
          <mxGeometry x="20" y="20" width="1060" height="1150" as="geometry" />
        </mxCell>
        <mxCell id="677b7b8949515195-2" value="LOGO" style="whiteSpace=wrap;html=1;rounded=0;shadow=0;labelBackgroundColor=none;strokeWidth=1;fontFamily=Verdana;fontSize=28;align=center;comic=1;" parent="1" vertex="1">
          <mxGeometry x="40" y="30" width="140" height="100" as="geometry" />
        </mxCell>
        <mxCell id="677b7b8949515195-9" value="" style="line;strokeWidth=1;html=1;rounded=0;shadow=0;labelBackgroundColor=none;fillColor=none;fontFamily=Verdana;fontSize=14;fontColor=#000000;align=center;comic=1;" parent="1" vertex="1">
          <mxGeometry x="20" y="140" width="1060" height="10" as="geometry" />
        </mxCell>
        <mxCell id="677b7b8949515195-10" value="" style="whiteSpace=wrap;html=1;rounded=0;shadow=0;labelBackgroundColor=none;strokeWidth=1;fillColor=none;fontFamily=Verdana;fontSize=12;align=center;comic=1;" parent="1" vertex="1">
          <mxGeometry x="30" y="160" width="1040" height="50" as="geometry" />
        </mxCell>
        <mxCell id="677b7b8949515195-11" value="Serviços&lt;br&gt;" style="text;html=1;points=[];align=left;verticalAlign=top;spacingTop=-4;fontSize=14;fontFamily=Verdana" parent="1" vertex="1">
          <mxGeometry x="330" y="175" width="60" height="20" as="geometry" />
        </mxCell>
        <mxCell id="677b7b8949515195-12" value="Agendamento" style="text;html=1;points=[];align=left;verticalAlign=top;spacingTop=-4;fontSize=14;fontFamily=Verdana" parent="1" vertex="1">
          <mxGeometry x="477" y="175" width="60" height="20" as="geometry" />
        </mxCell>
        <mxCell id="677b7b8949515195-13" value="Locais&lt;br&gt;" style="text;html=1;points=[];align=left;verticalAlign=top;spacingTop=-4;fontSize=14;fontFamily=Verdana" parent="1" vertex="1">
          <mxGeometry x="623" y="175" width="60" height="20" as="geometry" />
        </mxCell>
        <mxCell id="677b7b8949515195-14" value="Informações" style="text;html=1;points=[];align=left;verticalAlign=top;spacingTop=-4;fontSize=14;fontFamily=Verdana" parent="1" vertex="1">
          <mxGeometry x="770" y="175" width="60" height="20" as="geometry" />
        </mxCell>
        <mxCell id="rPj-FdVWAdJT3VnD7qgL-2" value="" style="whiteSpace=wrap;html=1;aspect=fixed;" vertex="1" parent="1">
          <mxGeometry x="115" y="240" width="890" height="890" as="geometry" />
        </mxCell>
        <mxCell id="rPj-FdVWAdJT3VnD7qgL-29" value="Masculino&lt;br&gt;" style="strokeWidth=1;shadow=0;dashed=0;align=center;html=1;shape=mxgraph.mockup.forms.rrect;rSize=0;fillColor=#eeeeee;strokeColor=#999999;gradientColor=#cccccc;align=left;spacingLeft=4;fontSize=17;fontColor=#666666;labelPosition=right;" vertex="1" parent="1">
          <mxGeometry x="325" y="600" width="15" height="15" as="geometry" />
        </mxCell>
        <mxCell id="rPj-FdVWAdJT3VnD7qgL-18" value="Feminino&lt;br&gt;" style="strokeWidth=1;shadow=0;dashed=0;align=center;html=1;shape=mxgraph.mockup.forms.rrect;rSize=0;fillColor=#eeeeee;strokeColor=#999999;gradientColor=#cccccc;align=left;spacingLeft=4;fontSize=17;fontColor=#666666;labelPosition=right;" vertex="1" parent="1">
          <mxGeometry x="220" y="600" width="15" height="15" as="geometry" />
        </mxCell>
        <mxCell id="rPj-FdVWAdJT3VnD7qgL-22" value="Nome Completo" style="strokeWidth=1;shadow=0;dashed=0;align=center;html=1;shape=mxgraph.mockup.text.textBox;fontColor=#666666;align=left;fontSize=17;spacingLeft=4;spacingTop=-3;strokeColor=#666666;mainText=" vertex="1" parent="1">
          <mxGeometry x="217.5" y="425" width="230" height="30" as="geometry" />
        </mxCell>
        <mxCell id="rPj-FdVWAdJT3VnD7qgL-28" value="Nome&amp;nbsp; Completo" style="text;html=1;strokeColor=none;fillColor=none;align=center;verticalAlign=middle;whiteSpace=wrap;rounded=0;" vertex="1" parent="1">
          <mxGeometry x="200" y="390" width="140" height="40" as="geometry" />
        </mxCell>
        <mxCell id="rPj-FdVWAdJT3VnD7qgL-31" value="Data&amp;nbsp; de Nascimento&lt;br&gt;" style="text;html=1;strokeColor=none;fillColor=none;align=center;verticalAlign=middle;whiteSpace=wrap;rounded=0;" vertex="1" parent="1">
          <mxGeometry x="220" y="480" width="120" height="20" as="geometry" />
        </mxCell>
        <mxCell id="rPj-FdVWAdJT3VnD7qgL-32" value="CPF" style="text;html=1;strokeColor=none;fillColor=none;align=center;verticalAlign=middle;whiteSpace=wrap;rounded=0;" vertex="1" parent="1">
          <mxGeometry x="217.5" y="650" width="40" height="20" as="geometry" />
        </mxCell>
        <mxCell id="rPj-FdVWAdJT3VnD7qgL-88" value="" style="edgeStyle=orthogonalEdgeStyle;rounded=0;orthogonalLoop=1;jettySize=auto;html=1;" edge="1" parent="1" source="rPj-FdVWAdJT3VnD7qgL-33" target="rPj-FdVWAdJT3VnD7qgL-34">
          <mxGeometry relative="1" as="geometry" />
        </mxCell>
        <mxCell id="rPj-FdVWAdJT3VnD7qgL-33" value="&amp;nbsp; &amp;nbsp; &amp;nbsp;/&amp;nbsp; &amp;nbsp; &amp;nbsp;/" style="strokeWidth=1;shadow=0;dashed=0;align=center;html=1;shape=mxgraph.mockup.text.textBox;fontColor=#666666;align=left;fontSize=17;spacingLeft=4;spacingTop=-3;strokeColor=#666666;mainText=" vertex="1" parent="1">
          <mxGeometry x="220" y="515" width="90" height="30" as="geometry" />
        </mxCell>
        <mxCell id="rPj-FdVWAdJT3VnD7qgL-34" value="" style="strokeWidth=1;shadow=0;dashed=0;align=center;html=1;shape=mxgraph.mockup.forms.rrect;rSize=5;strokeColor=#999999;fillColor=#ffffff;" vertex="1" parent="1">
          <mxGeometry x="390" y="480" width="80" height="100" as="geometry" />
        </mxCell>
        <mxCell id="rPj-FdVWAdJT3VnD7qgL-35" value="October 2014" style="strokeWidth=1;shadow=0;dashed=0;align=center;html=1;shape=mxgraph.mockup.forms.anchor;fontColor=#999999;" vertex="1" parent="rPj-FdVWAdJT3VnD7qgL-34">
          <mxGeometry x="15" y="4.571428571428572" width="50" height="11.428571428571429" as="geometry" />
        </mxCell>
        <mxCell id="rPj-FdVWAdJT3VnD7qgL-36" value="&lt;" style="strokeWidth=1;shadow=0;dashed=0;align=center;html=1;shape=mxgraph.mockup.forms.rrect;rSize=4;strokeColor=#999999;fontColor=#008cff;fontSize=19;fontStyle=1;" vertex="1" parent="rPj-FdVWAdJT3VnD7qgL-34">
          <mxGeometry x="4" y="4.571428571428572" width="12.5" height="11.428571428571429" as="geometry" />
        </mxCell>
        <mxCell id="rPj-FdVWAdJT3VnD7qgL-37" value="&gt;" style="strokeWidth=1;shadow=0;dashed=0;align=center;html=1;shape=mxgraph.mockup.forms.rrect;rSize=4;strokeColor=#999999;fontColor=#008cff;fontSize=19;fontStyle=1;" vertex="1" parent="rPj-FdVWAdJT3VnD7qgL-34">
          <mxGeometry x="63.5" y="4.571428571428572" width="12.5" height="11.428571428571429" as="geometry" />
        </mxCell>
        <mxCell id="rPj-FdVWAdJT3VnD7qgL-38" value="Mo" style="strokeWidth=1;shadow=0;dashed=0;align=center;html=1;shape=mxgraph.mockup.forms.anchor;fontColor=#999999;" vertex="1" parent="rPj-FdVWAdJT3VnD7qgL-34">
          <mxGeometry x="5" y="16" width="10" height="11.428571428571429" as="geometry" />
        </mxCell>
        <mxCell id="rPj-FdVWAdJT3VnD7qgL-39" value="Tu" style="strokeWidth=1;shadow=0;dashed=0;align=center;html=1;shape=mxgraph.mockup.forms.anchor;fontColor=#999999;" vertex="1" parent="rPj-FdVWAdJT3VnD7qgL-34">
          <mxGeometry x="15" y="16" width="10" height="11.428571428571429" as="geometry" />
        </mxCell>
        <mxCell id="rPj-FdVWAdJT3VnD7qgL-40" value="We" style="strokeWidth=1;shadow=0;dashed=0;align=center;html=1;shape=mxgraph.mockup.forms.anchor;fontColor=#999999;" vertex="1" parent="rPj-FdVWAdJT3VnD7qgL-34">
          <mxGeometry x="25" y="16" width="10" height="11.428571428571429" as="geometry" />
        </mxCell>
        <mxCell id="rPj-FdVWAdJT3VnD7qgL-41" value="Th" style="strokeWidth=1;shadow=0;dashed=0;align=center;html=1;shape=mxgraph.mockup.forms.anchor;fontColor=#999999;" vertex="1" parent="rPj-FdVWAdJT3VnD7qgL-34">
          <mxGeometry x="35" y="16" width="10" height="11.428571428571429" as="geometry" />
        </mxCell>
        <mxCell id="rPj-FdVWAdJT3VnD7qgL-42" value="Fr" style="strokeWidth=1;shadow=0;dashed=0;align=center;html=1;shape=mxgraph.mockup.forms.anchor;fontColor=#999999;" vertex="1" parent="rPj-FdVWAdJT3VnD7qgL-34">
          <mxGeometry x="45" y="16" width="10" height="11.428571428571429" as="geometry" />
        </mxCell>
        <mxCell id="rPj-FdVWAdJT3VnD7qgL-43" value="Sa" style="strokeWidth=1;shadow=0;dashed=0;align=center;html=1;shape=mxgraph.mockup.forms.anchor;fontColor=#999999;" vertex="1" parent="rPj-FdVWAdJT3VnD7qgL-34">
          <mxGeometry x="55" y="16" width="10" height="11.428571428571429" as="geometry" />
        </mxCell>
        <mxCell id="rPj-FdVWAdJT3VnD7qgL-44" value="Su" style="strokeWidth=1;shadow=0;dashed=0;align=center;html=1;shape=mxgraph.mockup.forms.anchor;fontColor=#999999;" vertex="1" parent="rPj-FdVWAdJT3VnD7qgL-34">
          <mxGeometry x="65" y="16" width="10" height="11.428571428571429" as="geometry" />
        </mxCell>
        <mxCell id="rPj-FdVWAdJT3VnD7qgL-45" value="1" style="strokeWidth=1;shadow=0;dashed=0;align=center;html=1;shape=mxgraph.mockup.forms.rrect;rSize=0;strokeColor=#999999;fontColor=#999999;" vertex="1" parent="rPj-FdVWAdJT3VnD7qgL-34">
          <mxGeometry x="5" y="27.42857142857143" width="10" height="11.428571428571429" as="geometry" />
        </mxCell>
        <mxCell id="rPj-FdVWAdJT3VnD7qgL-46" value="2" style="strokeWidth=1;shadow=0;dashed=0;align=center;html=1;shape=mxgraph.mockup.forms.rrect;rSize=0;strokeColor=#999999;fontColor=#999999;" vertex="1" parent="rPj-FdVWAdJT3VnD7qgL-34">
          <mxGeometry x="15" y="27.42857142857143" width="10" height="11.428571428571429" as="geometry" />
        </mxCell>
        <mxCell id="rPj-FdVWAdJT3VnD7qgL-47" value="3" style="strokeWidth=1;shadow=0;dashed=0;align=center;html=1;shape=mxgraph.mockup.forms.rrect;rSize=0;strokeColor=#999999;fontColor=#999999;" vertex="1" parent="rPj-FdVWAdJT3VnD7qgL-34">
          <mxGeometry x="25" y="27.42857142857143" width="10" height="11.428571428571429" as="geometry" />
        </mxCell>
        <mxCell id="rPj-FdVWAdJT3VnD7qgL-48" value="4" style="strokeWidth=1;shadow=0;dashed=0;align=center;html=1;shape=mxgraph.mockup.forms.rrect;rSize=0;strokeColor=#999999;fontColor=#999999;" vertex="1" parent="rPj-FdVWAdJT3VnD7qgL-34">
          <mxGeometry x="35" y="27.42857142857143" width="10" height="11.428571428571429" as="geometry" />
        </mxCell>
        <mxCell id="rPj-FdVWAdJT3VnD7qgL-49" value="5" style="strokeWidth=1;shadow=0;dashed=0;align=center;html=1;shape=mxgraph.mockup.forms.rrect;rSize=0;strokeColor=#999999;fontColor=#999999;" vertex="1" parent="rPj-FdVWAdJT3VnD7qgL-34">
          <mxGeometry x="45" y="27.42857142857143" width="10" height="11.428571428571429" as="geometry" />
        </mxCell>
        <mxCell id="rPj-FdVWAdJT3VnD7qgL-50" value="6" style="strokeWidth=1;shadow=0;dashed=0;align=center;html=1;shape=mxgraph.mockup.forms.rrect;rSize=0;strokeColor=#999999;fontColor=#999999;" vertex="1" parent="rPj-FdVWAdJT3VnD7qgL-34">
          <mxGeometry x="55" y="27.42857142857143" width="10" height="11.428571428571429" as="geometry" />
        </mxCell>
        <mxCell id="rPj-FdVWAdJT3VnD7qgL-51" value="7" style="strokeWidth=1;shadow=0;dashed=0;align=center;html=1;shape=mxgraph.mockup.forms.rrect;rSize=0;strokeColor=#999999;fontColor=#999999;" vertex="1" parent="rPj-FdVWAdJT3VnD7qgL-34">
          <mxGeometry x="65" y="27.42857142857143" width="10" height="11.428571428571429" as="geometry" />
        </mxCell>
        <mxCell id="rPj-FdVWAdJT3VnD7qgL-52" value="8" style="strokeWidth=1;shadow=0;dashed=0;align=center;html=1;shape=mxgraph.mockup.forms.rrect;rSize=0;strokeColor=#999999;fontColor=#999999;" vertex="1" parent="rPj-FdVWAdJT3VnD7qgL-34">
          <mxGeometry x="5" y="38.85714285714286" width="10" height="11.428571428571429" as="geometry" />
        </mxCell>
        <mxCell id="rPj-FdVWAdJT3VnD7qgL-53" value="9" style="strokeWidth=1;shadow=0;dashed=0;align=center;html=1;shape=mxgraph.mockup.forms.rrect;rSize=0;strokeColor=#999999;fontColor=#999999;" vertex="1" parent="rPj-FdVWAdJT3VnD7qgL-34">
          <mxGeometry x="15" y="38.85714285714286" width="10" height="11.428571428571429" as="geometry" />
        </mxCell>
        <mxCell id="rPj-FdVWAdJT3VnD7qgL-54" value="10" style="strokeWidth=1;shadow=0;dashed=0;align=center;html=1;shape=mxgraph.mockup.forms.rrect;rSize=0;strokeColor=#999999;fontColor=#999999;" vertex="1" parent="rPj-FdVWAdJT3VnD7qgL-34">
          <mxGeometry x="25" y="38.85714285714286" width="10" height="11.428571428571429" as="geometry" />
        </mxCell>
        <mxCell id="rPj-FdVWAdJT3VnD7qgL-55" value="11" style="strokeWidth=1;shadow=0;dashed=0;align=center;html=1;shape=mxgraph.mockup.forms.rrect;rSize=0;strokeColor=#999999;fontColor=#999999;" vertex="1" parent="rPj-FdVWAdJT3VnD7qgL-34">
          <mxGeometry x="35" y="38.85714285714286" width="10" height="11.428571428571429" as="geometry" />
        </mxCell>
        <mxCell id="rPj-FdVWAdJT3VnD7qgL-56" value="12" style="strokeWidth=1;shadow=0;dashed=0;align=center;html=1;shape=mxgraph.mockup.forms.rrect;rSize=0;strokeColor=#999999;fontColor=#999999;" vertex="1" parent="rPj-FdVWAdJT3VnD7qgL-34">
          <mxGeometry x="45" y="38.85714285714286" width="10" height="11.428571428571429" as="geometry" />
        </mxCell>
        <mxCell id="rPj-FdVWAdJT3VnD7qgL-57" value="13" style="strokeWidth=1;shadow=0;dashed=0;align=center;html=1;shape=mxgraph.mockup.forms.rrect;rSize=0;strokeColor=#999999;fontColor=#999999;" vertex="1" parent="rPj-FdVWAdJT3VnD7qgL-34">
          <mxGeometry x="55" y="38.85714285714286" width="10" height="11.428571428571429" as="geometry" />
        </mxCell>
        <mxCell id="rPj-FdVWAdJT3VnD7qgL-58" value="14" style="strokeWidth=1;shadow=0;dashed=0;align=center;html=1;shape=mxgraph.mockup.forms.rrect;rSize=0;strokeColor=#999999;fontColor=#999999;" vertex="1" parent="rPj-FdVWAdJT3VnD7qgL-34">
          <mxGeometry x="65" y="38.85714285714286" width="10" height="11.428571428571429" as="geometry" />
        </mxCell>
        <mxCell id="rPj-FdVWAdJT3VnD7qgL-59" value="15" style="strokeWidth=1;shadow=0;dashed=0;align=center;html=1;shape=mxgraph.mockup.forms.rrect;rSize=0;strokeColor=#999999;fontColor=#999999;" vertex="1" parent="rPj-FdVWAdJT3VnD7qgL-34">
          <mxGeometry x="5" y="50.285714285714285" width="10" height="11.428571428571429" as="geometry" />
        </mxCell>
        <mxCell id="rPj-FdVWAdJT3VnD7qgL-60" value="16" style="strokeWidth=1;shadow=0;dashed=0;align=center;html=1;shape=mxgraph.mockup.forms.rrect;rSize=0;strokeColor=#999999;fontColor=#999999;" vertex="1" parent="rPj-FdVWAdJT3VnD7qgL-34">
          <mxGeometry x="15" y="50.285714285714285" width="10" height="11.428571428571429" as="geometry" />
        </mxCell>
        <mxCell id="rPj-FdVWAdJT3VnD7qgL-61" value="17" style="strokeWidth=1;shadow=0;dashed=0;align=center;html=1;shape=mxgraph.mockup.forms.rrect;rSize=0;strokeColor=#999999;fontColor=#999999;" vertex="1" parent="rPj-FdVWAdJT3VnD7qgL-34">
          <mxGeometry x="25" y="50.285714285714285" width="10" height="11.428571428571429" as="geometry" />
        </mxCell>
        <mxCell id="rPj-FdVWAdJT3VnD7qgL-62" value="18" style="strokeWidth=1;shadow=0;dashed=0;align=center;html=1;shape=mxgraph.mockup.forms.rrect;rSize=0;strokeColor=#999999;fontColor=#999999;" vertex="1" parent="rPj-FdVWAdJT3VnD7qgL-34">
          <mxGeometry x="35" y="50.285714285714285" width="10" height="11.428571428571429" as="geometry" />
        </mxCell>
        <mxCell id="rPj-FdVWAdJT3VnD7qgL-63" value="19" style="strokeWidth=1;shadow=0;dashed=0;align=center;html=1;shape=mxgraph.mockup.forms.rrect;rSize=0;strokeColor=#999999;fontColor=#999999;" vertex="1" parent="rPj-FdVWAdJT3VnD7qgL-34">
          <mxGeometry x="45" y="50.285714285714285" width="10" height="11.428571428571429" as="geometry" />
        </mxCell>
        <mxCell id="rPj-FdVWAdJT3VnD7qgL-64" value="20" style="strokeWidth=1;shadow=0;dashed=0;align=center;html=1;shape=mxgraph.mockup.forms.rrect;rSize=0;strokeColor=#999999;fontColor=#999999;" vertex="1" parent="rPj-FdVWAdJT3VnD7qgL-34">
          <mxGeometry x="55" y="50.285714285714285" width="10" height="11.428571428571429" as="geometry" />
        </mxCell>
        <mxCell id="rPj-FdVWAdJT3VnD7qgL-65" value="21" style="strokeWidth=1;shadow=0;dashed=0;align=center;html=1;shape=mxgraph.mockup.forms.rrect;rSize=0;strokeColor=#999999;fontColor=#999999;" vertex="1" parent="rPj-FdVWAdJT3VnD7qgL-34">
          <mxGeometry x="65" y="50.285714285714285" width="10" height="11.428571428571429" as="geometry" />
        </mxCell>
        <mxCell id="rPj-FdVWAdJT3VnD7qgL-66" value="22" style="strokeWidth=1;shadow=0;dashed=0;align=center;html=1;shape=mxgraph.mockup.forms.rrect;rSize=0;strokeColor=#999999;fontColor=#999999;" vertex="1" parent="rPj-FdVWAdJT3VnD7qgL-34">
          <mxGeometry x="5" y="61.714285714285715" width="10" height="11.428571428571429" as="geometry" />
        </mxCell>
        <mxCell id="rPj-FdVWAdJT3VnD7qgL-67" value="23" style="strokeWidth=1;shadow=0;dashed=0;align=center;html=1;shape=mxgraph.mockup.forms.rrect;rSize=0;strokeColor=#999999;fontColor=#999999;" vertex="1" parent="rPj-FdVWAdJT3VnD7qgL-34">
          <mxGeometry x="15" y="61.714285714285715" width="10" height="11.428571428571429" as="geometry" />
        </mxCell>
        <mxCell id="rPj-FdVWAdJT3VnD7qgL-68" value="25" style="strokeWidth=1;shadow=0;dashed=0;align=center;html=1;shape=mxgraph.mockup.forms.rrect;rSize=0;strokeColor=#999999;fontColor=#999999;" vertex="1" parent="rPj-FdVWAdJT3VnD7qgL-34">
          <mxGeometry x="35" y="61.714285714285715" width="10" height="11.428571428571429" as="geometry" />
        </mxCell>
        <mxCell id="rPj-FdVWAdJT3VnD7qgL-69" value="26" style="strokeWidth=1;shadow=0;dashed=0;align=center;html=1;shape=mxgraph.mockup.forms.rrect;rSize=0;strokeColor=#999999;fontColor=#999999;" vertex="1" parent="rPj-FdVWAdJT3VnD7qgL-34">
          <mxGeometry x="45" y="61.714285714285715" width="10" height="11.428571428571429" as="geometry" />
        </mxCell>
        <mxCell id="rPj-FdVWAdJT3VnD7qgL-70" value="27" style="strokeWidth=1;shadow=0;dashed=0;align=center;html=1;shape=mxgraph.mockup.forms.rrect;rSize=0;strokeColor=#999999;fontColor=#999999;" vertex="1" parent="rPj-FdVWAdJT3VnD7qgL-34">
          <mxGeometry x="55" y="61.714285714285715" width="10" height="11.428571428571429" as="geometry" />
        </mxCell>
        <mxCell id="rPj-FdVWAdJT3VnD7qgL-71" value="28" style="strokeWidth=1;shadow=0;dashed=0;align=center;html=1;shape=mxgraph.mockup.forms.rrect;rSize=0;strokeColor=#999999;fontColor=#999999;" vertex="1" parent="rPj-FdVWAdJT3VnD7qgL-34">
          <mxGeometry x="65" y="61.714285714285715" width="10" height="11.428571428571429" as="geometry" />
        </mxCell>
        <mxCell id="rPj-FdVWAdJT3VnD7qgL-72" value="29" style="strokeWidth=1;shadow=0;dashed=0;align=center;html=1;shape=mxgraph.mockup.forms.rrect;rSize=0;strokeColor=#999999;fontColor=#999999;" vertex="1" parent="rPj-FdVWAdJT3VnD7qgL-34">
          <mxGeometry x="5" y="73.14285714285715" width="10" height="11.428571428571429" as="geometry" />
        </mxCell>
        <mxCell id="rPj-FdVWAdJT3VnD7qgL-73" value="30" style="strokeWidth=1;shadow=0;dashed=0;align=center;html=1;shape=mxgraph.mockup.forms.rrect;rSize=0;strokeColor=#999999;fontColor=#999999;" vertex="1" parent="rPj-FdVWAdJT3VnD7qgL-34">
          <mxGeometry x="15" y="73.14285714285715" width="10" height="11.428571428571429" as="geometry" />
        </mxCell>
        <mxCell id="rPj-FdVWAdJT3VnD7qgL-74" value="31" style="strokeWidth=1;shadow=0;dashed=0;align=center;html=1;shape=mxgraph.mockup.forms.rrect;rSize=0;strokeColor=#999999;fontColor=#999999;" vertex="1" parent="rPj-FdVWAdJT3VnD7qgL-34">
          <mxGeometry x="25" y="73.14285714285715" width="10" height="11.428571428571429" as="geometry" />
        </mxCell>
        <mxCell id="rPj-FdVWAdJT3VnD7qgL-75" value="1" style="strokeWidth=1;shadow=0;dashed=0;align=center;html=1;shape=mxgraph.mockup.forms.rrect;rSize=0;strokeColor=#999999;fontColor=#999999;fillColor=#ddeeff;" vertex="1" parent="rPj-FdVWAdJT3VnD7qgL-34">
          <mxGeometry x="35" y="73.14285714285715" width="10" height="11.428571428571429" as="geometry" />
        </mxCell>
        <mxCell id="rPj-FdVWAdJT3VnD7qgL-76" value="2" style="strokeWidth=1;shadow=0;dashed=0;align=center;html=1;shape=mxgraph.mockup.forms.rrect;rSize=0;strokeColor=#999999;fontColor=#999999;fillColor=#ddeeff;" vertex="1" parent="rPj-FdVWAdJT3VnD7qgL-34">
          <mxGeometry x="45" y="73.14285714285715" width="10" height="11.428571428571429" as="geometry" />
        </mxCell>
        <mxCell id="rPj-FdVWAdJT3VnD7qgL-77" value="3" style="strokeWidth=1;shadow=0;dashed=0;align=center;html=1;shape=mxgraph.mockup.forms.rrect;rSize=0;strokeColor=#999999;fontColor=#999999;fillColor=#ddeeff;" vertex="1" parent="rPj-FdVWAdJT3VnD7qgL-34">
          <mxGeometry x="55" y="73.14285714285715" width="10" height="11.428571428571429" as="geometry" />
        </mxCell>
        <mxCell id="rPj-FdVWAdJT3VnD7qgL-78" value="4" style="strokeWidth=1;shadow=0;dashed=0;align=center;html=1;shape=mxgraph.mockup.forms.rrect;rSize=0;strokeColor=#999999;fontColor=#999999;fillColor=#ddeeff;" vertex="1" parent="rPj-FdVWAdJT3VnD7qgL-34">
          <mxGeometry x="65" y="73.14285714285715" width="10" height="11.428571428571429" as="geometry" />
        </mxCell>
        <mxCell id="rPj-FdVWAdJT3VnD7qgL-79" value="5" style="strokeWidth=1;shadow=0;dashed=0;align=center;html=1;shape=mxgraph.mockup.forms.rrect;rSize=0;strokeColor=#999999;fontColor=#999999;fillColor=#ddeeff;" vertex="1" parent="rPj-FdVWAdJT3VnD7qgL-34">
          <mxGeometry x="5" y="84.57142857142858" width="10" height="11.428571428571429" as="geometry" />
        </mxCell>
        <mxCell id="rPj-FdVWAdJT3VnD7qgL-80" value="6" style="strokeWidth=1;shadow=0;dashed=0;align=center;html=1;shape=mxgraph.mockup.forms.rrect;rSize=0;strokeColor=#999999;fontColor=#999999;fillColor=#ddeeff;" vertex="1" parent="rPj-FdVWAdJT3VnD7qgL-34">
          <mxGeometry x="15" y="84.57142857142858" width="10" height="11.428571428571429" as="geometry" />
        </mxCell>
        <mxCell id="rPj-FdVWAdJT3VnD7qgL-81" value="7" style="strokeWidth=1;shadow=0;dashed=0;align=center;html=1;shape=mxgraph.mockup.forms.rrect;rSize=0;strokeColor=#999999;fontColor=#999999;fillColor=#ddeeff;" vertex="1" parent="rPj-FdVWAdJT3VnD7qgL-34">
          <mxGeometry x="25" y="84.57142857142858" width="10" height="11.428571428571429" as="geometry" />
        </mxCell>
        <mxCell id="rPj-FdVWAdJT3VnD7qgL-82" value="8" style="strokeWidth=1;shadow=0;dashed=0;align=center;html=1;shape=mxgraph.mockup.forms.rrect;rSize=0;strokeColor=#999999;fontColor=#999999;fillColor=#ddeeff;" vertex="1" parent="rPj-FdVWAdJT3VnD7qgL-34">
          <mxGeometry x="35" y="84.57142857142858" width="10" height="11.428571428571429" as="geometry" />
        </mxCell>
        <mxCell id="rPj-FdVWAdJT3VnD7qgL-83" value="9" style="strokeWidth=1;shadow=0;dashed=0;align=center;html=1;shape=mxgraph.mockup.forms.rrect;rSize=0;strokeColor=#999999;fontColor=#999999;fillColor=#ddeeff;" vertex="1" parent="rPj-FdVWAdJT3VnD7qgL-34">
          <mxGeometry x="45" y="84.57142857142858" width="10" height="11.428571428571429" as="geometry" />
        </mxCell>
        <mxCell id="rPj-FdVWAdJT3VnD7qgL-84" value="10" style="strokeWidth=1;shadow=0;dashed=0;align=center;html=1;shape=mxgraph.mockup.forms.rrect;rSize=0;strokeColor=#999999;fontColor=#999999;fillColor=#ddeeff;" vertex="1" parent="rPj-FdVWAdJT3VnD7qgL-34">
          <mxGeometry x="55" y="84.57142857142858" width="10" height="11.428571428571429" as="geometry" />
        </mxCell>
        <mxCell id="rPj-FdVWAdJT3VnD7qgL-85" value="11" style="strokeWidth=1;shadow=0;dashed=0;align=center;html=1;shape=mxgraph.mockup.forms.rrect;rSize=0;strokeColor=#999999;fontColor=#999999;fillColor=#ddeeff;" vertex="1" parent="rPj-FdVWAdJT3VnD7qgL-34">
          <mxGeometry x="65" y="84.57142857142858" width="10" height="11.428571428571429" as="geometry" />
        </mxCell>
        <mxCell id="rPj-FdVWAdJT3VnD7qgL-86" value="24" style="strokeWidth=1;shadow=0;dashed=0;align=center;html=1;shape=mxgraph.mockup.forms.rrect;rSize=0;strokeColor=#ff0000;fontColor=#ffffff;strokeWidth=2;fillColor=#008cff;" vertex="1" parent="rPj-FdVWAdJT3VnD7qgL-34">
          <mxGeometry x="25" y="61.714285714285715" width="10" height="11.428571428571429" as="geometry" />
        </mxCell>
        <mxCell id="rPj-FdVWAdJT3VnD7qgL-89" value="&amp;nbsp; &amp;nbsp;.&amp;nbsp; &amp;nbsp;.&amp;nbsp; &amp;nbsp;-" style="strokeWidth=1;shadow=0;dashed=0;align=center;html=1;shape=mxgraph.mockup.text.textBox;fontColor=#666666;align=left;fontSize=17;spacingLeft=4;spacingTop=-3;strokeColor=#666666;mainText=" vertex="1" parent="1">
          <mxGeometry x="220" y="680" width="90" height="30" as="geometry" />
        </mxCell>
        <mxCell id="rPj-FdVWAdJT3VnD7qgL-94" value="&lt;font style=&quot;font-size: 18px&quot;&gt;&lt;b&gt;DADOS PESSOAIS&lt;/b&gt;&lt;/font&gt;" style="text;html=1;strokeColor=none;fillColor=none;align=center;verticalAlign=middle;whiteSpace=wrap;rounded=0;" vertex="1" parent="1">
          <mxGeometry x="190" y="350" width="210" height="60" as="geometry" />
        </mxCell>
        <mxCell id="rPj-FdVWAdJT3VnD7qgL-95" value="Telefone" style="text;html=1;strokeColor=none;fillColor=none;align=center;verticalAlign=middle;whiteSpace=wrap;rounded=0;" vertex="1" parent="1">
          <mxGeometry x="200" y="760" width="90" height="20" as="geometry" />
        </mxCell>
        <mxCell id="rPj-FdVWAdJT3VnD7qgL-98" value="(&amp;nbsp; )&amp;nbsp; &amp;nbsp; &amp;nbsp;-&amp;nbsp; &amp;nbsp; ." style="strokeWidth=1;shadow=0;dashed=0;align=center;html=1;shape=mxgraph.mockup.text.textBox;fontColor=#666666;align=left;fontSize=17;spacingLeft=4;spacingTop=-3;strokeColor=#666666;mainText=" vertex="1" parent="1">
          <mxGeometry x="220" y="790" width="120" height="30" as="geometry" />
        </mxCell>
        <mxCell id="rPj-FdVWAdJT3VnD7qgL-101" value="" style="verticalLabelPosition=bottom;shadow=0;dashed=0;align=center;html=1;verticalAlign=top;strokeWidth=1;shape=mxgraph.mockup.markup.line;strokeColor=#999999;direction=north;" vertex="1" parent="1">
          <mxGeometry x="550" y="410" width="20" height="540" as="geometry" />
        </mxCell>
        <mxCell id="rPj-FdVWAdJT3VnD7qgL-102" value="Email" style="text;html=1;strokeColor=none;fillColor=none;align=center;verticalAlign=middle;whiteSpace=wrap;rounded=0;" vertex="1" parent="1">
          <mxGeometry x="200" y="860" width="90" height="20" as="geometry" />
        </mxCell>
        <mxCell id="rPj-FdVWAdJT3VnD7qgL-103" value="example@gmail.com&lt;br&gt;" style="strokeWidth=1;shadow=0;dashed=0;align=center;html=1;shape=mxgraph.mockup.text.textBox;fontColor=#666666;align=left;fontSize=17;spacingLeft=4;spacingTop=-3;strokeColor=#666666;mainText=" vertex="1" parent="1">
          <mxGeometry x="217.5" y="890" width="172.5" height="30" as="geometry" />
        </mxCell>
        <mxCell id="rPj-FdVWAdJT3VnD7qgL-104" value="&lt;font style=&quot;font-size: 18px&quot;&gt;&lt;b&gt;SERVIÇOS E REFERÊNCIAS&lt;/b&gt;&lt;/font&gt;" style="text;html=1;strokeColor=none;fillColor=none;align=center;verticalAlign=middle;whiteSpace=wrap;rounded=0;" vertex="1" parent="1">
          <mxGeometry x="583" y="340" width="257" height="80" as="geometry" />
        </mxCell>
        <mxCell id="rPj-FdVWAdJT3VnD7qgL-105" value="Tipo(s) de serviço" style="text;html=1;strokeColor=none;fillColor=none;align=center;verticalAlign=middle;whiteSpace=wrap;rounded=0;" vertex="1" parent="1">
          <mxGeometry x="583" y="405" width="140" height="40" as="geometry" />
        </mxCell>
        <mxCell id="rPj-FdVWAdJT3VnD7qgL-106" value="" style="strokeWidth=1;shadow=0;dashed=0;align=center;html=1;shape=mxgraph.mockup.forms.rrect;rSize=0;strokeColor=#999999;fillColor=#ffffff;recursiveResize=0;" vertex="1" parent="1">
          <mxGeometry x="590" y="450" width="150" height="120" as="geometry" />
        </mxCell>
        <mxCell id="rPj-FdVWAdJT3VnD7qgL-107" value="Manicure" style="strokeWidth=1;shadow=0;dashed=0;align=center;html=1;shape=mxgraph.mockup.forms.rrect;rSize=0;fillColor=#eeeeee;strokeColor=#999999;gradientColor=#cccccc;align=left;spacingLeft=4;fontSize=17;fontColor=#666666;labelPosition=right;" vertex="1" parent="rPj-FdVWAdJT3VnD7qgL-106">
          <mxGeometry x="8" y="7.5" width="15" height="15" as="geometry" />
        </mxCell>
        <mxCell id="rPj-FdVWAdJT3VnD7qgL-108" value="Pedicure" style="strokeWidth=1;shadow=0;dashed=0;align=center;html=1;shape=mxgraph.mockup.forms.rrect;rSize=0;fillColor=#eeeeee;strokeColor=#999999;gradientColor=#cccccc;align=left;spacingLeft=4;fontSize=17;fontColor=#666666;labelPosition=right;" vertex="1" parent="rPj-FdVWAdJT3VnD7qgL-106">
          <mxGeometry x="8" y="37.5" width="15" height="15" as="geometry" />
        </mxCell>
        <mxCell id="rPj-FdVWAdJT3VnD7qgL-109" value="Maquiagem" style="strokeWidth=1;shadow=0;dashed=0;align=center;html=1;shape=mxgraph.mockup.forms.checkbox;rSize=0;resizable=0;fillColor=#aaaaaa;strokeColor=#444444;gradientColor=#666666;align=left;spacingLeft=4;fontSize=17;fontColor=#008cff;labelPosition=right;" vertex="1" parent="rPj-FdVWAdJT3VnD7qgL-106">
          <mxGeometry x="8" y="67.5" width="15" height="15" as="geometry" />
        </mxCell>
        <mxCell id="rPj-FdVWAdJT3VnD7qgL-110" value="cabeleireira" style="strokeWidth=1;shadow=0;dashed=0;align=center;html=1;shape=mxgraph.mockup.forms.rrect;rSize=0;fillColor=#eeeeee;strokeColor=#999999;gradientColor=#cccccc;align=left;spacingLeft=4;fontSize=17;fontColor=#666666;labelPosition=right;" vertex="1" parent="rPj-FdVWAdJT3VnD7qgL-106">
          <mxGeometry x="8" y="97.5" width="15" height="15" as="geometry" />
        </mxCell>
        <mxCell id="rPj-FdVWAdJT3VnD7qgL-113" value="Cursos" style="text;html=1;strokeColor=none;fillColor=none;align=center;verticalAlign=middle;whiteSpace=wrap;rounded=0;" vertex="1" parent="1">
          <mxGeometry x="543" y="587.5" width="140" height="40" as="geometry" />
        </mxCell>
        <mxCell id="rPj-FdVWAdJT3VnD7qgL-114" value="" style="verticalLabelPosition=bottom;verticalAlign=top;html=1;shadow=0;dashed=0;strokeWidth=1;shape=mxgraph.ios.iAddIcon;fillColor=#7AdF78;fillColor2=#1A9917;strokeColor=#ffffff;" vertex="1" parent="1">
          <mxGeometry x="770" y="630" width="30" height="27.5" as="geometry" />
        </mxCell>
        <mxCell id="rPj-FdVWAdJT3VnD7qgL-115" value="" style="strokeWidth=1;shadow=0;dashed=0;align=center;html=1;shape=mxgraph.mockup.text.textBox;fontColor=#666666;align=left;fontSize=17;spacingLeft=4;spacingTop=-3;strokeColor=#666666;mainText=" vertex="1" parent="1">
          <mxGeometry x="590" y="627.5" width="160" height="30" as="geometry" />
        </mxCell>
        <mxCell id="rPj-FdVWAdJT3VnD7qgL-116" value="&lt;font style=&quot;font-size: 12px&quot;&gt;CONFIRMAR&lt;/font&gt;" style="strokeWidth=1;html=1;shadow=0;dashed=0;shape=mxgraph.ios.iButton;strokeColor=#444444;fontColor=#ffffff;buttonText=;fontSize=8;fillColor=#dddddd;fillColor2=#3D5565;whiteSpace=wrap;align=center;" vertex="1" parent="1">
          <mxGeometry x="860" y="1090" width="110" height="40" as="geometry" />
        </mxCell>
        <mxCell id="rPj-FdVWAdJT3VnD7qgL-117" value="&lt;font style=&quot;font-size: 12px&quot;&gt;CANCELAR&lt;/font&gt;" style="strokeWidth=1;html=1;shadow=0;dashed=0;shape=mxgraph.ios.iButton;strokeColor=#444444;fontColor=#ffffff;buttonText=;fontSize=8;fillColor=#dddddd;fillColor2=#3D5565;whiteSpace=wrap;align=center;" vertex="1" parent="1">
          <mxGeometry x="700" y="1090" width="110" height="40" as="geometry" />
        </mxCell>
        <mxCell id="rPj-FdVWAdJT3VnD7qgL-119" value="Nome do Salão" style="text;html=1;strokeColor=none;fillColor=none;align=center;verticalAlign=middle;whiteSpace=wrap;rounded=0;" vertex="1" parent="1">
          <mxGeometry x="570" y="720" width="120" height="20" as="geometry" />
        </mxCell>
        <mxCell id="rPj-FdVWAdJT3VnD7qgL-120" value="Ex: Salão do zé" style="strokeWidth=1;shadow=0;dashed=0;align=center;html=1;shape=mxgraph.mockup.text.textBox;fontColor=#666666;align=left;fontSize=17;spacingLeft=4;spacingTop=-3;strokeColor=#666666;mainText=" vertex="1" parent="1">
          <mxGeometry x="583" y="750" width="167" height="30" as="geometry" />
        </mxCell>
        <mxCell id="rPj-FdVWAdJT3VnD7qgL-121" value="Logradouro" style="text;html=1;strokeColor=none;fillColor=none;align=center;verticalAlign=middle;whiteSpace=wrap;rounded=0;" vertex="1" parent="1">
          <mxGeometry x="593" y="800" width="40" height="20" as="geometry" />
        </mxCell>
        <mxCell id="rPj-FdVWAdJT3VnD7qgL-122" value="Ex: Salão do zé" style="strokeWidth=1;shadow=0;dashed=0;align=center;html=1;shape=mxgraph.mockup.text.textBox;fontColor=#666666;align=left;fontSize=17;spacingLeft=4;spacingTop=-3;strokeColor=#666666;mainText=" vertex="1" parent="1">
          <mxGeometry x="583" y="830" width="167" height="30" as="geometry" />
        </mxCell>
        <mxCell id="rPj-FdVWAdJT3VnD7qgL-124" value="&lt;font style=&quot;font-size: 18px&quot;&gt;&lt;b&gt;DADOS SALÃO&lt;/b&gt;&lt;/font&gt;" style="text;html=1;strokeColor=none;fillColor=none;align=center;verticalAlign=middle;whiteSpace=wrap;rounded=0;" vertex="1" parent="1">
          <mxGeometry x="550" y="670" width="210" height="60" as="geometry" />
        </mxCell>
        <mxCell id="rPj-FdVWAdJT3VnD7qgL-125" value="Número" style="text;html=1;strokeColor=none;fillColor=none;align=center;verticalAlign=middle;whiteSpace=wrap;rounded=0;" vertex="1" parent="1">
          <mxGeometry x="770" y="800" width="40" height="20" as="geometry" />
        </mxCell>
        <mxCell id="rPj-FdVWAdJT3VnD7qgL-126" value="Ex: 123" style="strokeWidth=1;shadow=0;dashed=0;align=center;html=1;shape=mxgraph.mockup.text.textBox;fontColor=#666666;align=left;fontSize=17;spacingLeft=4;spacingTop=-3;strokeColor=#666666;mainText=" vertex="1" parent="1">
          <mxGeometry x="770" y="830" width="108.5" height="30" as="geometry" />
        </mxCell>
        <mxCell id="rPj-FdVWAdJT3VnD7qgL-127" value="CEP" style="text;html=1;strokeColor=none;fillColor=none;align=center;verticalAlign=middle;whiteSpace=wrap;rounded=0;" vertex="1" parent="1">
          <mxGeometry x="765" y="895" width="40" height="20" as="geometry" />
        </mxCell>
        <mxCell id="rPj-FdVWAdJT3VnD7qgL-128" value="zona:03&lt;br&gt;" style="strokeWidth=1;shadow=0;dashed=0;align=center;html=1;shape=mxgraph.mockup.text.textBox;fontColor=#666666;align=left;fontSize=17;spacingLeft=4;spacingTop=-3;strokeColor=#666666;mainText=" vertex="1" parent="1">
          <mxGeometry x="583" y="920" width="108.5" height="30" as="geometry" />
        </mxCell>
        <mxCell id="rPj-FdVWAdJT3VnD7qgL-129" value="Bairro" style="text;html=1;strokeColor=none;fillColor=none;align=center;verticalAlign=middle;whiteSpace=wrap;rounded=0;" vertex="1" parent="1">
          <mxGeometry x="583" y="890" width="40" height="20" as="geometry" />
        </mxCell>
        <mxCell id="rPj-FdVWAdJT3VnD7qgL-131" style="edgeStyle=orthogonalEdgeStyle;rounded=0;orthogonalLoop=1;jettySize=auto;html=1;exitX=0.5;exitY=1;exitDx=0;exitDy=0;" edge="1" parent="1" source="rPj-FdVWAdJT3VnD7qgL-125" target="rPj-FdVWAdJT3VnD7qgL-125">
          <mxGeometry relative="1" as="geometry" />
        </mxCell>
        <mxCell id="rPj-FdVWAdJT3VnD7qgL-132" value="ex: 00000-000" style="strokeWidth=1;shadow=0;dashed=0;align=center;html=1;shape=mxgraph.mockup.text.textBox;fontColor=#666666;align=left;fontSize=17;spacingLeft=4;spacingTop=-3;strokeColor=#666666;mainText=" vertex="1" parent="1">
          <mxGeometry x="770" y="920" width="140" height="30" as="geometry" />
        </mxCell>
      </root>
    </mxGraphModel>
  </diagram>
</mxfile>
